<?xml version="1.0" encoding="UTF-8"?>
<svg xmlns="http://www.w3.org/2000/svg" xmlns:xlink="http://www.w3.org/1999/xlink" width="538px" height="70px" viewBox="0 0 455 70" version="1.1">
<defs>
<clipPath id="clip1">
  <path d="M 409.316406 19.210938 L 442.769531 19.210938 L 442.769531 41 L 409.316406 41 Z M 409.316406 19.210938 "/>
</clipPath>
<clipPath id="clip2">
  <path d="M 409.316406 19.210938 L 442.769531 19.210938 L 442.769531 48 L 409.316406 48 Z M 409.316406 19.210938 "/>
</clipPath>
<clipPath id="clip3">
  <path d="M 409.316406 40 L 442.769531 40 L 442.769531 45 L 409.316406 45 Z M 409.316406 40 "/>
</clipPath>
<clipPath id="clip4">
  <path d="M 409.316406 34 L 442.769531 34 L 442.769531 50.277344 L 409.316406 50.277344 Z M 409.316406 34 "/>
</clipPath>
<clipPath id="clip5">
  <path d="M 420 48 L 432 48 L 432 50.277344 L 420 50.277344 Z M 420 48 "/>
</clipPath>
<clipPath id="clip6">
  <path d="M 415 37 L 437 37 L 437 50.277344 L 415 50.277344 Z M 415 37 "/>
</clipPath>
<clipPath id="clip7">
  <path d="M 409.316406 49 L 442.769531 49 L 442.769531 50.277344 L 409.316406 50.277344 Z M 409.316406 49 "/>
</clipPath>
</defs>
<g id="surface1">
<path style=" stroke:none;fill-rule:nonzero;fill:rgb(13.72549%,12.156863%,12.54902%);fill-opacity:1;" d="M 25.820312 52.371094 C 23.671875 52.371094 21.84375 52.164062 20.328125 51.757812 C 18.8125 51.347656 17.253906 50.753906 15.652344 49.96875 L 15.140625 41.539062 L 15.960938 41.539062 L 18.667969 47.109375 C 19.859375 48.09375 21.035156 48.8125 22.191406 49.253906 C 23.351562 49.695312 24.507812 49.917969 25.664062 49.917969 C 27.640625 49.917969 29.199219 49.40625 30.339844 48.386719 C 31.480469 47.363281 32.050781 45.96875 32.050781 44.195312 C 32.050781 42.800781 31.738281 41.683594 31.105469 40.847656 C 30.476562 40.015625 29.539062 39.265625 28.296875 38.601562 C 27.054688 37.9375 25.53125 37.164062 23.722656 36.277344 C 21.304688 35.121094 19.449219 33.902344 18.15625 32.625 C 16.863281 31.347656 16.214844 29.550781 16.214844 27.234375 C 16.214844 26.007812 16.511719 24.824219 17.109375 23.683594 C 17.703125 22.542969 18.511719 21.519531 19.535156 20.617188 C 20.558594 19.714844 21.699219 18.992188 22.957031 18.449219 C 24.21875 17.902344 25.53125 17.628906 26.890625 17.628906 C 28.492188 17.628906 29.992188 17.816406 31.386719 18.191406 C 32.785156 18.566406 34.164062 19.113281 35.527344 19.828125 L 36.035156 28 L 35.21875 28 L 32.5625 22.535156 C 31.472656 21.683594 30.484375 21.070312 29.597656 20.695312 C 28.714844 20.320312 27.710938 20.132812 26.585938 20.132812 C 25.121094 20.132812 23.902344 20.628906 22.933594 21.613281 C 21.960938 22.601562 21.476562 23.847656 21.476562 25.34375 C 21.476562 27.011719 21.996094 28.324219 23.035156 29.277344 C 24.074219 30.230469 25.75 31.253906 28.066406 32.34375 C 30.109375 33.332031 31.804688 34.277344 33.148438 35.179688 C 34.496094 36.082031 35.492188 37.09375 36.140625 38.21875 C 36.785156 39.34375 37.109375 40.773438 37.109375 42.511719 C 37.109375 44.109375 36.769531 45.523438 36.085938 46.75 C 35.40625 47.976562 34.503906 49.007812 33.378906 49.839844 C 32.257812 50.675781 31.039062 51.304688 29.726562 51.730469 C 28.417969 52.15625 27.113281 52.371094 25.820312 52.371094 M 41.402344 51.859375 L 41.402344 51.042969 L 44.621094 49.355469 L 57.75 17.886719 L 60.558594 17.886719 L 73.535156 49.203125 L 76.957031 51.042969 L 76.957031 51.859375 L 63.472656 51.859375 L 63.472656 51.042969 L 67.964844 49.253906 L 64.1875 40.058594 L 51.875 40.058594 L 48.144531 49.304688 L 52.4375 51.042969 L 52.4375 51.859375 L 41.402344 51.859375 M 53.050781 37.246094 L 63.0625 37.246094 L 58.054688 24.9375 L 53.050781 37.246094 M 81.863281 51.859375 L 81.863281 51.042969 L 86 48.996094 L 86 21.105469 L 81.914062 18.957031 L 81.914062 18.140625 L 89.933594 18.140625 L 109.5 42.203125 L 109.5 20.949219 L 104.238281 18.957031 L 104.238281 18.140625 L 117.164062 18.140625 L 117.164062 18.957031 L 113.074219 20.949219 L 113.074219 52.113281 L 110.878906 52.113281 L 89.574219 25.957031 L 89.574219 49.050781 L 94.835938 51.042969 L 94.835938 51.859375 L 81.863281 51.859375 M 141.019531 52.371094 C 138.566406 52.371094 136.292969 51.960938 134.199219 51.144531 C 132.105469 50.328125 130.292969 49.175781 128.757812 47.695312 C 127.226562 46.214844 126.027344 44.46875 125.15625 42.457031 C 124.289062 40.449219 123.855469 38.253906 123.855469 35.867188 C 123.855469 33.246094 124.339844 30.828125 125.308594 28.613281 C 126.28125 26.398438 127.617188 24.46875 129.320312 22.816406 C 131.023438 21.164062 132.980469 19.886719 135.195312 18.984375 C 137.410156 18.082031 139.777344 17.628906 142.296875 17.628906 C 144.101562 17.628906 145.632812 17.730469 146.894531 17.9375 C 148.15625 18.140625 149.289062 18.429688 150.292969 18.804688 C 151.296875 19.179688 152.277344 19.605469 153.230469 20.082031 L 153.535156 28.664062 L 152.71875 28.664062 L 149.039062 22.535156 C 147.710938 21.648438 146.570312 21.035156 145.617188 20.695312 C 144.664062 20.355469 143.558594 20.183594 142.296875 20.183594 C 139.777344 20.183594 137.527344 20.761719 135.554688 21.921875 C 133.578125 23.078125 132.027344 24.679688 130.90625 26.722656 C 129.78125 28.765625 129.21875 31.101562 129.21875 33.722656 C 129.21875 37.027344 129.816406 39.851562 131.007812 42.203125 C 132.199219 44.554688 133.789062 46.351562 135.785156 47.59375 C 137.777344 48.835938 140.015625 49.457031 142.5 49.457031 C 143.488281 49.457031 144.46875 49.398438 145.4375 49.277344 C 146.410156 49.160156 147.390625 48.929688 148.375 48.589844 L 148.375 39.851562 L 143.828125 37.757812 L 143.828125 36.941406 L 157.316406 36.941406 L 157.316406 37.757812 L 153.742188 40.007812 L 153.742188 48.078125 C 152.71875 48.964844 151.492188 49.722656 150.0625 50.351562 C 148.632812 50.980469 147.132812 51.476562 145.566406 51.832031 C 144 52.191406 142.484375 52.371094 141.019531 52.371094 M 163.191406 51.859375 L 163.191406 51.042969 L 167.332031 48.996094 L 167.332031 21.003906 L 163.191406 18.957031 L 163.191406 18.140625 L 176.832031 18.140625 L 176.832031 18.957031 L 172.695312 21.003906 L 172.695312 48.996094 L 176.832031 51.042969 L 176.832031 51.859375 L 163.191406 51.859375 M 172.695312 34.640625 L 186.796875 20.695312 L 183.167969 18.957031 L 183.167969 18.140625 L 194.203125 18.140625 L 194.203125 18.957031 L 190.984375 20.234375 L 177.90625 33.058594 L 193.640625 49.664062 L 196.859375 51.042969 L 196.859375 51.859375 L 188.53125 51.859375 L 172.695312 34.640625 M 207.023438 51.859375 L 207.023438 51.042969 L 211.621094 48.996094 L 211.621094 36.125 L 200.332031 20.746094 L 197.113281 18.957031 L 197.113281 18.140625 L 210.292969 18.140625 L 210.292969 18.957031 L 206.566406 20.796875 L 206.566406 21.003906 L 215.609375 33.3125 L 223.78125 21.054688 L 223.78125 20.847656 L 220 18.957031 L 220 18.140625 L 231.035156 18.140625 L 231.035156 18.957031 L 227.714844 20.644531 L 216.9375 36.074219 L 216.9375 48.996094 L 221.535156 51.042969 L 221.535156 51.859375 L 207.023438 51.859375 M 254.074219 52.371094 C 251.453125 52.371094 249.101562 51.894531 247.027344 50.9375 C 244.949219 49.984375 243.320312 48.488281 242.148438 46.445312 C 240.972656 44.398438 240.382812 41.726562 240.382812 38.421875 L 240.382812 21.003906 L 236.246094 18.957031 L 236.246094 18.140625 L 249.886719 18.140625 L 249.886719 18.957031 L 245.75 21.003906 L 245.75 37.859375 C 245.75 40.6875 246.191406 42.925781 247.078125 44.578125 C 247.960938 46.230469 249.15625 47.414062 250.652344 48.128906 C 252.152344 48.84375 253.835938 49.203125 255.710938 49.203125 C 257.210938 49.203125 258.597656 48.886719 259.875 48.257812 C 261.152344 47.628906 262.171875 46.605469 262.941406 45.191406 C 263.707031 43.777344 264.089844 41.929688 264.089844 39.648438 L 264.089844 20.898438 L 259.082031 18.957031 L 259.082031 18.140625 L 271.804688 18.140625 L 271.804688 18.957031 L 267.664062 20.949219 L 267.664062 38.421875 C 267.664062 41.726562 267.078125 44.398438 265.902344 46.445312 C 264.726562 48.488281 263.117188 49.984375 261.074219 50.9375 C 259.03125 51.894531 256.699219 52.371094 254.074219 52.371094 M 291.726562 51.859375 L 291.726562 51.042969 L 295.863281 48.996094 L 295.863281 21.003906 L 291.726562 18.957031 L 291.726562 18.140625 L 305.367188 18.140625 L 305.367188 18.957031 L 301.230469 21.003906 L 301.230469 48.996094 L 305.367188 51.042969 L 305.367188 51.859375 L 291.726562 51.859375 M 301.230469 34.640625 L 315.328125 20.695312 L 311.703125 18.957031 L 311.703125 18.140625 L 322.738281 18.140625 L 322.738281 18.957031 L 319.519531 20.234375 L 306.441406 33.058594 L 322.175781 49.664062 L 325.394531 51.042969 L 325.394531 51.859375 L 317.066406 51.859375 L 301.230469 34.640625 M 329.835938 51.859375 L 329.835938 51.042969 L 334.027344 48.996094 L 334.027344 21.003906 L 329.835938 18.957031 L 329.835938 18.140625 L 343.476562 18.140625 L 343.476562 18.957031 L 339.339844 21.003906 L 339.339844 48.996094 L 343.476562 51.042969 L 343.476562 51.859375 L 329.835938 51.859375 M 350.121094 51.859375 L 350.121094 51.042969 L 354.207031 48.996094 L 355.28125 21.003906 L 350.886719 18.957031 L 350.886719 18.140625 L 361.054688 18.140625 L 372.496094 44.554688 L 383.890625 18.140625 L 393.648438 18.140625 L 393.648438 18.957031 L 389.304688 20.847656 L 390.171875 48.996094 L 393.851562 51.042969 L 393.851562 51.859375 L 381.234375 51.859375 L 381.234375 51.042969 L 385.0625 49.050781 L 384.554688 24.066406 L 372.496094 52.113281 L 370.042969 52.113281 L 358.089844 24.375 L 357.425781 49.050781 L 361.667969 51.042969 L 361.667969 51.859375 L 350.121094 51.859375 "/>
<g clip-path="url(#clip1)" clip-rule="nonzero">
<path style=" stroke:none;fill-rule:nonzero;fill:rgb(35.294118%,34.117647%,34.509804%);fill-opacity:1;" d="M 442.527344 40.890625 L 409.558594 40.890625 L 409.558594 20.902344 C 409.558594 20.101562 410.207031 19.453125 411.007812 19.453125 L 441.078125 19.453125 C 441.878906 19.453125 442.527344 20.101562 442.527344 20.902344 Z M 442.527344 40.890625 "/>
</g>
<g clip-path="url(#clip2)" clip-rule="nonzero">
<path style="fill:none;stroke-width:0.0141931;stroke-linecap:butt;stroke-linejoin:miter;stroke:rgb(13.72549%,12.156863%,12.54902%);stroke-opacity:1;stroke-miterlimit:10;" d="M 12.634114 0.682957 L 11.666107 0.682957 L 11.666107 0.0960739 C 11.666107 0.0725619 11.685146 0.0535229 11.708658 0.0535229 L 12.591563 0.0535229 C 12.615075 0.0535229 12.634114 0.0725619 12.634114 0.0960739 Z M 12.634114 0.682957 " transform="matrix(34.058388,0,0,34.058388,12.229793,17.630222)"/>
</g>
<g clip-path="url(#clip3)" clip-rule="nonzero">
<path style=" stroke:none;fill-rule:nonzero;fill:rgb(100%,100%,100%);fill-opacity:1;" d="M 409.554688 40.890625 L 442.527344 40.890625 L 442.527344 42.769531 C 442.527344 43.570312 441.878906 44.222656 441.078125 44.222656 L 411.007812 44.222656 C 410.621094 44.222656 410.253906 44.070312 409.980469 43.796875 C 409.710938 43.523438 409.554688 43.15625 409.554688 42.769531 Z M 409.554688 40.890625 "/>
</g>
<g clip-path="url(#clip4)" clip-rule="nonzero">
<path style="fill:none;stroke-width:0.0141931;stroke-linecap:butt;stroke-linejoin:miter;stroke:rgb(13.72549%,12.156863%,12.54902%);stroke-opacity:1;stroke-miterlimit:10;" d="M 11.665992 0.682957 L 12.634114 0.682957 L 12.634114 0.738124 C 12.634114 0.761636 12.615075 0.78079 12.591563 0.78079 L 11.708658 0.78079 C 11.697303 0.78079 11.686522 0.776317 11.678494 0.768288 C 11.67058 0.76026 11.665992 0.749478 11.665992 0.738124 Z M 11.665992 0.682957 " transform="matrix(34.058388,0,0,34.058388,12.229793,17.630222)"/>
</g>
<path style="fill:none;stroke-width:0.0141931;stroke-linecap:butt;stroke-linejoin:miter;stroke:rgb(13.72549%,12.156863%,12.54902%);stroke-opacity:1;stroke-miterlimit:10;" d="M 12.098499 0.731816 L 12.201607 0.731816 " transform="matrix(34.058388,0,0,34.058388,12.229793,17.630222)"/>
<path style="fill-rule:nonzero;fill:rgb(82.745098%,82.352941%,82.352941%);fill-opacity:1;stroke-width:0.0141931;stroke-linecap:butt;stroke-linejoin:miter;stroke:rgb(13.72549%,12.156863%,12.54902%);stroke-opacity:1;stroke-miterlimit:10;" d="M 11.715884 0.632492 L 11.746162 0.632492 L 11.746162 0.136675 L 11.715884 0.136675 Z M 11.715884 0.632492 " transform="matrix(34.058388,0,0,34.058388,12.229793,17.630222)"/>
<path style="fill-rule:nonzero;fill:rgb(82.745098%,82.352941%,82.352941%);fill-opacity:1;stroke-width:0.0141796;stroke-linecap:butt;stroke-linejoin:miter;stroke:rgb(13.72549%,12.156863%,12.54902%);stroke-opacity:1;stroke-miterlimit:10;" d="M 11.715884 0.135184 L 12.584337 0.135184 L 12.584337 0.104905 L 11.715884 0.104905 Z M 11.715884 0.135184 " transform="matrix(34.058388,0,0,34.058388,12.229793,17.630222)"/>
<path style="fill:none;stroke-width:0.0141931;stroke-linecap:butt;stroke-linejoin:miter;stroke:rgb(13.72549%,12.156863%,12.54902%);stroke-opacity:1;stroke-miterlimit:10;" d="M 11.746162 0.141951 L 11.746162 0.106167 " transform="matrix(34.058388,0,0,34.058388,12.229793,17.630222)"/>
<path style=" stroke:none;fill-rule:nonzero;fill:rgb(40.392157%,77.254902%,94.117647%);fill-opacity:1;" d="M 412.0625 22.015625 L 411.472656 22.015625 L 411.472656 21.425781 L 412.0625 21.425781 Z M 412.0625 22.015625 "/>
<path style="fill-rule:nonzero;fill:rgb(100%,100%,100%);fill-opacity:1;stroke-width:0.0141931;stroke-linecap:butt;stroke-linejoin:miter;stroke:rgb(13.72549%,12.156863%,12.54902%);stroke-opacity:1;stroke-miterlimit:10;" d="M 12.584337 0.632492 L 11.746162 0.632492 L 11.746162 0.136675 L 12.584337 0.136675 Z M 12.584337 0.632492 " transform="matrix(34.058388,0,0,34.058388,12.229793,17.630222)"/>
<path style="fill:none;stroke-width:0.0141931;stroke-linecap:butt;stroke-linejoin:miter;stroke:rgb(13.72549%,12.156863%,12.54902%);stroke-opacity:1;stroke-miterlimit:10;" d="M 11.746162 0.210078 L 12.584337 0.210078 " transform="matrix(34.058388,0,0,34.058388,12.229793,17.630222)"/>
<path style="fill:none;stroke-width:0.0141931;stroke-linecap:butt;stroke-linejoin:miter;stroke:rgb(13.72549%,12.156863%,12.54902%);stroke-opacity:1;stroke-miterlimit:10;" d="M 11.897442 0.138166 L 11.897442 0.210078 " transform="matrix(34.058388,0,0,34.058388,12.229793,17.630222)"/>
<path style="fill:none;stroke-width:0.0141931;stroke-linecap:butt;stroke-linejoin:miter;stroke:rgb(13.72549%,12.156863%,12.54902%);stroke-opacity:1;stroke-miterlimit:10;" d="M 11.925313 0.174065 L 12.556696 0.174065 " transform="matrix(34.058388,0,0,34.058388,12.229793,17.630222)"/>
<path style=" stroke:none;fill-rule:nonzero;fill:rgb(13.72549%,12.156863%,12.54902%);fill-opacity:1;" d="M 413.753906 23.851562 L 413.164062 23.851562 L 413.164062 23.261719 L 413.753906 23.261719 Z M 415.128906 23.851562 L 414.535156 23.851562 L 414.535156 23.261719 L 415.128906 23.261719 Z M 416.5 23.851562 L 415.910156 23.851562 L 415.910156 23.261719 L 416.5 23.261719 Z M 416.5 23.851562 "/>
<path style=" stroke:none;fill-rule:nonzero;fill:rgb(94.117647%,24.705882%,32.156863%);fill-opacity:1;" d="M 439.238281 31.871094 L 413.878906 31.871094 L 413.878906 27.800781 L 439.238281 27.800781 Z M 439.238281 31.871094 "/>
<path style="fill:none;stroke-width:0.014071;stroke-linecap:butt;stroke-linejoin:miter;stroke:rgb(13.72549%,12.156863%,12.54902%);stroke-opacity:1;stroke-miterlimit:10;" d="M 11.961097 0.457012 L 12.537542 0.457012 " transform="matrix(34.058388,0,0,34.058388,12.229793,17.630222)"/>
<path style="fill:none;stroke-width:0.014071;stroke-linecap:butt;stroke-linejoin:miter;stroke:rgb(13.72549%,12.156863%,12.54902%);stroke-opacity:1;stroke-miterlimit:10;" d="M 11.961097 0.495434 L 12.537542 0.495434 " transform="matrix(34.058388,0,0,34.058388,12.229793,17.630222)"/>
<path style="fill:none;stroke-width:0.014071;stroke-linecap:butt;stroke-linejoin:miter;stroke:rgb(13.72549%,12.156863%,12.54902%);stroke-opacity:1;stroke-miterlimit:10;" d="M 11.961097 0.533741 L 12.537542 0.533741 " transform="matrix(34.058388,0,0,34.058388,12.229793,17.630222)"/>
<path style="fill:none;stroke-width:0.014071;stroke-linecap:butt;stroke-linejoin:miter;stroke:rgb(13.72549%,12.156863%,12.54902%);stroke-opacity:1;stroke-miterlimit:10;" d="M 11.961097 0.572049 L 12.537542 0.572049 " transform="matrix(34.058388,0,0,34.058388,12.229793,17.630222)"/>
<path style=" stroke:none;fill-rule:nonzero;fill:rgb(40.392157%,77.254902%,94.117647%);fill-opacity:1;" d="M 418.636719 37.40625 L 413.878906 37.40625 L 413.878906 32.953125 L 418.636719 32.953125 Z M 418.636719 37.40625 "/>
<path style=" stroke:none;fill-rule:nonzero;fill:rgb(13.72549%,12.156863%,12.54902%);fill-opacity:1;" d="M 422.734375 26.789062 L 422.144531 26.789062 L 422.144531 26.195312 L 422.734375 26.195312 Z M 424.109375 26.789062 L 423.519531 26.789062 L 423.519531 26.195312 L 424.109375 26.195312 Z M 425.480469 26.789062 L 424.890625 26.789062 L 424.890625 26.195312 L 425.480469 26.195312 Z M 426.855469 26.789062 L 426.261719 26.789062 L 426.261719 26.195312 L 426.855469 26.195312 Z M 428.226562 26.789062 L 427.636719 26.789062 L 427.636719 26.195312 L 428.226562 26.195312 Z M 429.597656 26.789062 L 429.007812 26.789062 L 429.007812 26.195312 L 429.597656 26.195312 Z M 430.972656 26.789062 L 430.382812 26.789062 L 430.382812 26.195312 L 430.972656 26.195312 Z M 430.972656 26.789062 "/>
<g clip-path="url(#clip5)" clip-rule="nonzero">
<path style=" stroke:none;fill-rule:nonzero;fill:rgb(100%,100%,100%);fill-opacity:1;" d="M 420.347656 50.023438 L 431.738281 50.023438 L 431.738281 48.628906 L 420.347656 48.628906 Z M 420.347656 50.023438 "/>
<path style="fill:none;stroke-width:0.0141931;stroke-linecap:butt;stroke-linejoin:miter;stroke:rgb(13.72549%,12.156863%,12.54902%);stroke-opacity:1;stroke-miterlimit:10;" d="M 12.317332 0.951108 L 11.982888 0.951108 L 11.982888 0.910163 L 12.317332 0.910163 Z M 12.317332 0.951108 " transform="matrix(34.058388,0,0,34.058388,12.229793,17.630222)"/>
</g>
<path style=" stroke:none;fill-rule:nonzero;fill:rgb(100%,100%,100%);fill-opacity:1;" d="M 428.808594 44.222656 L 429.679688 48.628906 L 422.40625 48.628906 L 423.277344 44.222656 Z M 428.808594 44.222656 "/>
<g clip-path="url(#clip6)" clip-rule="nonzero">
<path style="fill:none;stroke-width:0.0141931;stroke-linecap:butt;stroke-linejoin:miter;stroke:rgb(13.72549%,12.156863%,12.54902%);stroke-opacity:1;stroke-miterlimit:10;" d="M 12.231313 0.78079 L 12.256889 0.910163 L 12.043331 0.910163 L 12.068908 0.78079 Z M 12.231313 0.78079 " transform="matrix(34.058388,0,0,34.058388,12.229793,17.630222)"/>
</g>
<g clip-path="url(#clip7)" clip-rule="nonzero">
<path style="fill:none;stroke-width:0.0141931;stroke-linecap:butt;stroke-linejoin:miter;stroke:rgb(13.72549%,12.156863%,12.54902%);stroke-opacity:1;stroke-miterlimit:10;" d="M 11.658996 0.951567 L 12.641225 0.951567 " transform="matrix(34.058388,0,0,34.058388,12.229793,17.630222)"/>
</g>
</g>
</svg>
